# xmcd CD database file
#
# Track frame offsets:
#	150
#	11790
#	23825
#	35482
#	47314
#	59502
#	69662
#	82182
#	95036
#	108385
#	120825
#	134901
#	150353
#	164410
#	178145
#	190566
#	203945
#	217625
#	228892
#	242078
#	254211
#	267098
#	282552
#	292610
#	304318
#	315537
#
# Disc length: 4356 seconds
#
# Revision: 0
# Processed by: cddbd v1.5PL3 Copyright (c) Steve Scherf et al.
# Submitted via: CDex 1.50Beta7
#
DISCID=7411021a
DTITLE=Goree Carter - The Complete Recordings - Volume 1 (1949-1951)
DYEAR=1900
DGENRE=Blues
TTITLE0=Love's A Gamble
TTITLE1=Christmas Time
TTITLE2=Sweet Ole Woman's Blues
TTITLE3=Back Home Blues
TTITLE4=Rock Awhile
TTITLE5=I'll Send You
TTITLE6=How Can You Love Me
TTITLE7=My Love Is Coming Down
TTITLE8=Hoy-Hoy
TTITLE9=I Just Thought Of You
TTITLE10=She's Just Old Fashioned
TTITLE11=Workin' With My Baby
TTITLE12=Is It True
TTITLE13=What A Friend Will Do
TTITLE14=She's My Best Bet
TTITLE15=Serenade
TTITLE16=Come On Let's Boogie
TTITLE17=Lonely World
TTITLE18=Drunk Or Sober
TTITLE19=You Are My Everything
TTITLE20=Every Dog Has His Day
TTITLE21=Everybody's Love Crazy
TTITLE22=I'm Just Another Fool
TTITLE23=If It's True What They Tell Me
TTITLE24=Let's Rock
TTITLE25=True Love Is Hard To Find
EXTD=
EXTT0=
EXTT1=
EXTT2=
EXTT3=
EXTT4=
EXTT5=
EXTT6=
EXTT7=
EXTT8=
EXTT9=
EXTT10=
EXTT11=
EXTT12=
EXTT13=
EXTT14=
EXTT15=
EXTT16=
EXTT17=
EXTT18=
EXTT19=
EXTT20=
EXTT21=
EXTT22=
EXTT23=
EXTT24=
EXTT25=
PLAYORDER=
